<svg width="1004" height="918" viewBox="0 0 1004 918" fill="none" xmlns="http://www.w3.org/2000/svg">
<path d="M250.537 594.522L264.828 552.784H270.612L284.903 594.522H280.253L276.057 582.613H259.271L255.188 594.522H250.537ZM260.405 578.53H274.922L267.72 556.753L260.405 578.53ZM350.207 594.862C347.863 594.862 345.746 594.654 343.855 594.238C341.965 593.822 340.339 593.123 338.978 592.14C337.655 591.119 336.634 589.758 335.916 588.057C335.198 586.318 334.839 584.163 334.839 581.592V552.784H339.375V581.592C339.375 583.974 339.791 585.826 340.623 587.15C341.492 588.473 342.74 589.418 344.366 589.985C345.991 590.514 347.938 590.779 350.207 590.779C352.475 590.779 354.422 590.514 356.048 589.985C357.673 589.418 358.902 588.473 359.734 587.15C360.603 585.826 361.038 583.974 361.038 581.592V552.784H365.575V581.592C365.575 584.163 365.216 586.318 364.497 588.057C363.779 589.758 362.739 591.119 361.378 592.14C360.055 593.123 358.448 593.822 356.558 594.238C354.668 594.654 352.551 594.862 350.207 594.862ZM433.33 594.862C430.835 594.862 428.661 594.578 426.808 594.011C424.956 593.444 423.425 592.423 422.215 590.949C421.005 589.437 420.098 587.282 419.493 584.484C418.926 581.687 418.642 578.038 418.642 573.539C418.642 569.305 418.945 565.827 419.55 563.105C420.154 560.345 421.062 558.19 422.272 556.64C423.519 555.09 425.088 554.013 426.978 553.408C428.869 552.765 431.099 552.444 433.67 552.444C434.842 552.444 436.146 552.519 437.583 552.67C439.02 552.822 440.437 553.011 441.836 553.238C443.235 553.427 444.502 553.672 445.636 553.975V557.321C444.993 557.207 444.086 557.094 442.914 556.98C441.742 556.867 440.4 556.772 438.887 556.697C437.413 556.583 435.901 556.527 434.351 556.527C432.347 556.527 430.627 556.753 429.19 557.207C427.753 557.661 426.581 558.511 425.674 559.759C424.805 560.969 424.162 562.689 423.746 564.92C423.33 567.15 423.122 570.042 423.122 573.596C423.122 577.188 423.311 580.137 423.689 582.443C424.105 584.711 424.748 586.45 425.617 587.66C426.487 588.87 427.621 589.701 429.02 590.155C430.419 590.609 432.158 590.836 434.237 590.836C437.073 590.836 439.398 590.76 441.212 590.609C443.027 590.458 444.502 590.287 445.636 590.098V593.501C444.502 593.766 443.235 594.011 441.836 594.238C440.475 594.427 439.057 594.578 437.583 594.692C436.146 594.805 434.729 594.862 433.33 594.862ZM507.962 594.522V556.867H495.089V552.784H525.372V556.867H512.499V594.522H507.962ZM576.603 594.522V552.784H581.14V594.522H576.603ZM650.913 594.862C648.229 594.862 645.866 594.616 643.825 594.125C641.821 593.595 640.138 592.613 638.777 591.176C637.454 589.739 636.452 587.622 635.772 584.824C635.129 582.027 634.808 578.36 634.808 573.823C634.808 569.286 635.148 565.619 635.829 562.821C636.509 559.986 637.53 557.831 638.891 556.357C640.252 554.844 641.934 553.824 643.938 553.294C645.942 552.727 648.267 552.444 650.913 552.444C653.635 552.444 655.998 552.727 658.002 553.294C660.043 553.824 661.726 554.844 663.049 556.357C664.41 557.831 665.412 559.986 666.055 562.821C666.697 565.619 667.019 569.286 667.019 573.823C667.019 578.36 666.678 582.027 665.998 584.824C665.355 587.622 664.353 589.739 662.992 591.176C661.669 592.613 660.006 593.595 658.002 594.125C655.998 594.616 653.635 594.862 650.913 594.862ZM650.913 590.836C653.03 590.836 654.826 590.628 656.301 590.212C657.775 589.796 658.966 589.002 659.873 587.83C660.818 586.62 661.499 584.9 661.915 582.67C662.331 580.439 662.539 577.49 662.539 573.823C662.539 570.005 662.312 566.942 661.858 564.636C661.442 562.33 660.762 560.591 659.817 559.419C658.909 558.247 657.718 557.472 656.244 557.094C654.807 556.716 653.03 556.527 650.913 556.527C648.947 556.527 647.227 556.716 645.753 557.094C644.316 557.472 643.106 558.247 642.123 559.419C641.178 560.591 640.46 562.33 639.968 564.636C639.515 566.942 639.288 570.005 639.288 573.823C639.288 577.49 639.477 580.439 639.855 582.67C640.271 584.9 640.932 586.62 641.84 587.83C642.747 589.002 643.938 589.796 645.412 590.212C646.925 590.628 648.758 590.836 650.913 590.836ZM721.434 594.522V552.784H725.12L746.896 586.753V552.784H751.376V594.522H747.69L725.914 560.553V594.522H721.434Z" fill="white"/>
<rect x="234" y="383.501" width="46.1769" height="122.369" fill="white"/>
<rect x="247.854" y="505.87" width="46.1769" height="92.3538" transform="rotate(-90 247.854 505.87)" fill="white"/>
<path d="M552.621 425.06V383.501H663.446V425.06H552.621Z" fill="url(#paint0_linear_953_564)"/>
<path d="M416.401 305H234.002V351.177H395.621C423.675 351.177 446.416 373.918 446.416 401.972V425.06L497.21 425.06V385.81C497.21 341.18 461.031 305 416.401 305Z" fill="url(#paint1_linear_953_564)"/>
<path d="M751.181 305H626.504V351.177H705.005C712.656 351.177 718.858 357.379 718.858 365.03V425.06L769.652 425.06V323.471C769.652 313.27 761.382 305 751.181 305Z" fill="url(#paint2_linear_953_564)"/>
<path d="M688.842 505.87H367.912V459.693H668.061C696.114 459.693 718.856 436.951 718.856 408.898V385.81L769.651 385.81L769.652 425.06C769.652 469.69 733.472 505.87 688.842 505.87Z" fill="url(#paint3_linear_953_564)"/>
<path d="M541.077 305H670.373V351.177H591.871C584.22 351.177 578.018 357.379 578.018 365.03V425.06L527.224 425.06V318.853C527.224 311.202 533.426 305 541.077 305Z" fill="url(#paint4_linear_953_564)"/>
<defs>
<linearGradient id="paint0_linear_953_564" x1="501.827" y1="305" x2="501.827" y2="505.87" gradientUnits="userSpaceOnUse">
<stop stop-color="#0CA3E7"/>
<stop offset="1" stop-color="#075B81"/>
</linearGradient>
<linearGradient id="paint1_linear_953_564" x1="501.827" y1="305" x2="501.827" y2="505.87" gradientUnits="userSpaceOnUse">
<stop stop-color="#0CA3E7"/>
<stop offset="1" stop-color="#075B81"/>
</linearGradient>
<linearGradient id="paint2_linear_953_564" x1="501.827" y1="305" x2="501.827" y2="505.87" gradientUnits="userSpaceOnUse">
<stop stop-color="#0CA3E7"/>
<stop offset="1" stop-color="#075B81"/>
</linearGradient>
<linearGradient id="paint3_linear_953_564" x1="501.827" y1="305" x2="501.827" y2="505.87" gradientUnits="userSpaceOnUse">
<stop stop-color="#0CA3E7"/>
<stop offset="1" stop-color="#075B81"/>
</linearGradient>
<linearGradient id="paint4_linear_953_564" x1="501.827" y1="305" x2="501.827" y2="505.87" gradientUnits="userSpaceOnUse">
<stop stop-color="#0CA3E7"/>
<stop offset="1" stop-color="#075B81"/>
</linearGradient>
</defs>
</svg>
