<svg width="54" height="54" viewBox="0 0 54 54" fill="none" xmlns="http://www.w3.org/2000/svg">
<rect width="54" height="54" rx="8" fill="url(#paint0_linear_363_330)"/>
<rect x="0.5" y="0.5" width="53" height="53" rx="7.5" stroke="white" stroke-opacity="0.2"/>
<path d="M17.6667 39C16.9333 39 16.3058 38.7391 15.784 38.2173C15.2622 37.6956 15.0009 37.0676 15 36.3333V17.6667C15 16.9333 15.2613 16.3058 15.784 15.784C16.3067 15.2622 16.9342 15.0009 17.6667 15H36.3333C37.0667 15 37.6947 15.2613 38.2173 15.784C38.74 16.3067 39.0009 16.9342 39 17.6667V36.3333C39 37.0667 38.7391 37.6947 38.2173 38.2173C37.6956 38.74 37.0676 39.0009 36.3333 39H17.6667ZM17.6667 33.6V36.3333H36.3333V24.6667L28.4 33.6667L23 28.2667L17.6667 33.6ZM17.6667 29.8L23 24.4667L28.2667 29.7333L36.3333 20.6667V17.6667H17.6667V29.8ZM17.6667 24.6667V20.6667V29.7333V24.4667V33.6V28.2667V33.6667V24.6667ZM17.6667 29.8V17.6667V29.7333V24.4667V29.8ZM17.6667 33.6V28.2667V33.6667V24.6667V36.3333V33.6Z" fill="white"/>
<defs>
<linearGradient id="paint0_linear_363_330" x1="26.7607" y1="61.051" x2="26.7607" y2="-5.1714e-07" gradientUnits="userSpaceOnUse">
<stop stop-color="#0CA3E7" stop-opacity="0.44"/>
<stop offset="1" stop-color="#0CA3E7" stop-opacity="0"/>
</linearGradient>
</defs>
</svg>
